# xmcd
#
# Track frame offsets:
#	151
#	18312
#	34223
#	54540
#	70209
#	85060
#	106893
#	131560
#	152787
#	172014
#
# Disc length: 2485 seconds
#
# Revision: 1
# Processed by: cddbd v1.5.1PL0 Copyright (c) Steve Scherf et al.
# Submitted via: EasyCDDAExtractor 6.2.0.3
#
DISCID=7f09b30a
DTITLE=Various Artist - Universal Street Hitz 14
DYEAR=2004
DGENRE=R&B
TTITLE0=N.O.R.E feat Nina Sky, Daddy Yankee, Gem Star and Big Mato - Oye Mi Cant
TTITLE0=o
TTITLE1=Nina Sky - Turnin' Me On
TTITLE2=Ja Rule feat R Kelly and Ashanti - Wonderful
TTITLE3=Terror Squad - Take Me Home
TTITLE4=Mase feat P.Diddy - Breathe, Stretch, Shake
TTITLE5=Slim Thug feat T.I. and Burn B - 3 Kings
TTITLE6=8 Ball and MJG - Don't Make
TTITLE7=Lil Wayne - Go DJ
TTITLE8=Yonnie - In Da Club
TTITLE9=Nicole Wray - If I Was Your Girlfriend
EXTD=
EXTT0=
EXTT1=
EXTT2=
EXTT3=
EXTT4=
EXTT5=
EXTT6=
EXTT7=
EXTT8=
EXTT9=
PLAYORDER=
